# xmcd
# 
# Track frame offsets:
#     150
#     22557
#     41242
#     59197
#     79817
#     94295
#     115965
#     135942
#     152380
#     171345
#     190947
#     215170
#     232015
#     247630
#     266485
#     292907
# 
# Disc length: 4316
# 
# Revision: 5
# Processed by: cddbd v1.5.2PL0 Copyright (c) Steve Scherf et al.
# Submitted via: fre:ac v1.0.27
# 
DISCID=da10da10
DTITLE=Arrested Development - Best of
DYEAR=1998
DGENRE=Hip-Hop
TTITLE0=People Everyday (Metamorphosis Radio Edit)
TTITLE1=Mr Wendal
TTITLE2=Raining Revolution
TTITLE3=Tennessee
TTITLE4=Africa's Inside Me (Zingalamaduni MIx)
TTITLE5=Revolution
TTITLE6=Give A Man A Fish
TTITLE7=Ease My Mind
TTITLE8=Fishing 4 Religion
TTITLE9=Natural
TTITLE10=Pride
TTITLE11=Shell
TTITLE12=Mama's Always On Stage
TTITLE13=Ease My Mind (Another Perspective Mix)
TTITLE14=Mr Wendal (Perfecto Mix)
TTITLE15=People Everyday (Live)
EXTD=
EXTT0=
EXTT1=
EXTT2=
EXTT3=
EXTT4=
EXTT5=
EXTT6=
EXTT7=
EXTT8=
EXTT9=
EXTT10=
EXTT11=
EXTT12=
EXTT13=
EXTT14=
EXTT15=
PLAYORDER=
